<svg width="114" height="30" viewBox="0 0 114 30" fill="none" xmlns="http://www.w3.org/2000/svg">
<path d="M38.752 2.57856V27.9949C38.752 28.1778 38.5568 28.2997 38.2641 28.2997C37.9714 28.2997 37.7763 28.1778 37.7763 27.9949V2.60904C37.7763 2.42619 37.9714 2.30429 38.2641 2.30429C38.5568 2.30429 38.752 2.42619 38.752 2.57856Z" fill="#CBD5E0"/>
<path d="M6.31461 0.0223389L0 0.0223389L0 6.33695L6.31461 6.33695L6.31461 0.0223389Z" fill="#CBD5E0"/>
<path d="M29.9773 17.3932H24.4717V22.8988H29.9773V17.3932Z" fill="#CBD5E0"/>
<path d="M24.4484 8.22473L20.2012 8.22473V14.0899H24.4484V8.22473Z" fill="#CBD5E0"/>
<path d="M29.9092 26.0226H25.9316V30.0001H29.9092V26.0226Z" fill="#CBD5E0"/>
<path d="M6.89888 9.6405L0 9.6405L0 18.5619H6.89888L6.89888 9.6405Z" fill="#CBD5E0"/>
<path d="M17.3033 11.8202L10.1572 11.8202L10.1572 21.8876H17.3033L17.3033 11.8202Z" fill="#CBD5E0"/>
<path d="M29.9099 0.0223389L24.4717 0.0223389V5.46054L29.9099 5.46054V0.0223389Z" fill="#CBD5E0"/>
<path d="M16.4731 26.0226L7.48438 26.0226L7.48438 30.0001L16.4731 30.0001V26.0226Z" fill="#CBD5E0"/>
<path d="M18.2917 0L12.8086 0L12.8086 5.48315L18.2917 5.48315V0Z" fill="#CBD5E0"/>
<path d="M3.14607 23.955H0L0 29.9774H3.14607L3.14607 23.955Z" fill="#CBD5E0"/>
<path d="M29.91 10.1122H28.3145V13.4156H29.91V10.1122Z" fill="#CBD5E0"/>
<path d="M21.9767 27.6178H19.6172V29.9773H21.9767V27.6178Z" fill="#CBD5E0"/>
<path d="M53.2783 3.81775V11.7093H52.1509L46.5141 5.64387V11.7093H45.3867V3.81775H46.5141L52.1509 9.79315V3.81775H53.2783Z" fill="#CBD5E0"/>
<path d="M55.5317 4.94499V7.19973H61.1685V8.32709H55.5317V11.7092H54.4043V3.81763H62.2959V4.94499H55.5317Z" fill="#CBD5E0"/>
<path d="M70.415 4.94499H67.0329V11.7092H65.9055V4.94499H62.5234V3.81763H70.415V4.94499Z" fill="#CBD5E0"/>
<path d="M51.0226 19.7234H47.6405C47.3259 19.7234 47.0594 19.8315 46.8409 20.0476C46.6224 20.2661 46.5131 20.5338 46.5131 20.8508V23.1055H52.1499V20.8508C52.1499 20.5338 52.0419 20.2661 51.8258 20.0476C51.6073 19.8315 51.3395 19.7234 51.0226 19.7234ZM53.2773 20.8508V26.4876H52.1499V24.2329H46.5131V26.4876H45.3857V20.8508C45.3857 20.5483 45.4446 20.2625 45.5622 19.9936C45.6775 19.7222 45.8372 19.4833 46.0413 19.2768C46.243 19.0703 46.4819 18.9046 46.758 18.7798C47.0318 18.6573 47.3259 18.5961 47.6405 18.5961H51.0226C51.3251 18.5961 51.6109 18.6537 51.8798 18.769C52.1511 18.8866 52.3877 19.0463 52.5894 19.248C52.7935 19.4521 52.9579 19.691 53.0828 19.9648C53.2053 20.2385 53.2701 20.5338 53.2773 20.8508Z" fill="#CBD5E0"/>
<path d="M62.2959 18.5961V26.4876H61.1685L55.5317 20.4222V26.4876H54.4043V18.5961H55.5317L61.1685 24.5715V18.5961H62.2959Z" fill="#CBD5E0"/>
<path d="M69.0607 19.7234H65.6786C65.364 19.7234 65.0975 19.8315 64.879 20.0476C64.6604 20.2661 64.5512 20.5338 64.5512 20.8508V23.1055H70.188V20.8508C70.188 20.5338 70.08 20.2661 69.8639 20.0476C69.6454 19.8315 69.3776 19.7234 69.0607 19.7234ZM71.3154 20.8508V26.4876H70.188V24.2329H64.5512V26.4876H63.4238V20.8508C63.4238 20.5483 63.4827 20.2625 63.6003 19.9936C63.7156 19.7222 63.8753 19.4833 64.0794 19.2768C64.2811 19.0703 64.52 18.9046 64.7961 18.7798C65.0699 18.6573 65.364 18.5961 65.6786 18.5961H69.0607C69.3632 18.5961 69.649 18.6537 69.9179 18.769C70.1892 18.8866 70.4257 19.0463 70.6274 19.248C70.8316 19.4521 70.996 19.691 71.1209 19.9648C71.2434 20.2385 71.3082 20.5338 71.3154 20.8508Z" fill="#CBD5E0"/>
<path d="M73.5707 18.5961V25.3603H80.3349V26.4876H72.4434V18.5961H73.5707Z" fill="#CBD5E0"/>
<path d="M85.9716 20.2853L82.5895 24.006V26.4876H81.4622V24.006L78.0801 20.2853V18.5961H79.2074V19.8243L82.0277 22.9254L84.8443 19.8243V18.5961H85.9716V20.2853Z" fill="#CBD5E0"/>
<path d="M94.0888 19.7234H90.7067V26.4876H89.5794V19.7234H86.1973V18.5961H94.0888V19.7234Z" fill="#CBD5E0"/>
<path d="M94.6514 26.4876V18.5961H95.7787V26.4876H94.6514Z" fill="#CBD5E0"/>
<path d="M99.0497 18.5961H102.432C102.732 18.5961 103.018 18.6537 103.289 18.769C103.56 18.8866 103.797 19.0463 103.999 19.248C104.203 19.4521 104.366 19.691 104.488 19.9648C104.613 20.2385 104.679 20.5338 104.686 20.8508H103.559C103.559 20.5338 103.45 20.2661 103.231 20.0476C103.015 19.8315 102.749 19.7234 102.432 19.7234H99.0497C98.7351 19.7234 98.4686 19.8315 98.2501 20.0476C98.0315 20.2661 97.9223 20.5338 97.9223 20.8508V24.2329C97.9223 24.5475 98.0315 24.814 98.2501 25.0325C98.4686 25.251 98.7351 25.3603 99.0497 25.3603H102.432C102.749 25.3603 103.015 25.251 103.231 25.0325C103.45 24.814 103.559 24.5475 103.559 24.2329H104.686C104.686 24.5331 104.629 24.8188 104.514 25.0901C104.396 25.3591 104.236 25.5968 104.035 25.8033C103.83 26.0098 103.592 26.1755 103.318 26.3003C103.044 26.4252 102.749 26.4876 102.432 26.4876H99.0497C98.7495 26.4876 98.4626 26.4288 98.1888 26.3111C97.9127 26.1959 97.6714 26.0362 97.4649 25.8321C97.2584 25.6304 97.0951 25.3915 96.975 25.1153C96.855 24.8416 96.7949 24.5475 96.7949 24.2329V20.8508C96.7949 20.5483 96.8538 20.2625 96.9714 19.9936C97.0867 19.7222 97.2463 19.4857 97.4505 19.284C97.6522 19.0799 97.8899 18.9154 98.1636 18.7906C98.4397 18.6681 98.7351 18.6033 99.0497 18.5961Z" fill="#CBD5E0"/>
<path d="M113.366 24.2329C113.366 24.5331 113.309 24.8188 113.193 25.0901C113.076 25.3591 112.916 25.5968 112.714 25.8033C112.51 26.0098 112.271 26.1755 111.997 26.3003C111.724 26.4252 111.428 26.4876 111.111 26.4876H107.729C107.422 26.4876 107.133 26.4288 106.861 26.3111C106.592 26.1959 106.356 26.0362 106.152 25.8321C105.95 25.6304 105.788 25.3915 105.666 25.1153C105.545 24.8416 105.482 24.5475 105.475 24.2329H106.602C106.602 24.5475 106.711 24.814 106.93 25.0325C107.148 25.251 107.415 25.3603 107.729 25.3603H111.111C111.428 25.3603 111.696 25.251 111.915 25.0325C112.131 24.814 112.239 24.5475 112.239 24.2329C112.239 23.9159 112.131 23.6482 111.915 23.4297C111.696 23.2136 111.428 23.1055 111.111 23.1055H107.729C107.429 23.1055 107.142 23.0467 106.869 22.929C106.595 22.8138 106.355 22.6541 106.148 22.45C105.939 22.2483 105.775 22.0094 105.655 21.7332C105.535 21.4595 105.475 21.1654 105.475 20.8508C105.475 20.5483 105.533 20.2625 105.651 19.9936C105.766 19.7222 105.926 19.4833 106.13 19.2768C106.332 19.0703 106.571 18.9046 106.847 18.7798C107.121 18.6573 107.415 18.5961 107.729 18.5961H111.111C111.412 18.5961 111.697 18.6537 111.969 18.769C112.24 18.8866 112.477 19.0463 112.678 19.248C112.882 19.4521 113.047 19.691 113.172 19.9648C113.294 20.2385 113.359 20.5338 113.366 20.8508H112.239C112.239 20.5338 112.131 20.2661 111.915 20.0476C111.696 19.8315 111.428 19.7234 111.111 19.7234H107.729C107.415 19.7234 107.148 19.8315 106.93 20.0476C106.711 20.2661 106.602 20.5338 106.602 20.8508C106.602 21.1654 106.711 21.4319 106.93 21.6504C107.148 21.8689 107.415 21.9782 107.729 21.9782H111.111C111.404 21.9782 111.689 22.0358 111.965 22.1511C112.239 22.2687 112.479 22.4284 112.685 22.6301C112.892 22.8342 113.058 23.0731 113.182 23.3469C113.305 23.6206 113.366 23.9159 113.366 24.2329Z" fill="#CBD5E0"/>
</svg>
