<svg width="30" height="30" viewBox="0 0 30 30" fill="none" xmlns="http://www.w3.org/2000/svg">
<path d="M11.8 15.8C12.2418 15.8 12.6 15.4419 12.6 15C12.6 14.5582 12.2418 14.2 11.8 14.2C11.3582 14.2 11 14.5582 11 15C11 15.4419 11.3582 15.8 11.8 15.8Z" fill="#4FD1C5"/>
<path d="M12.6 18.2C12.6 18.6418 12.2418 19 11.8 19C11.3582 19 11 18.6418 11 18.2C11 17.7582 11.3582 17.4 11.8 17.4C12.2418 17.4 12.6 17.7582 12.6 18.2Z" fill="#4FD1C5"/>
<path d="M18.2 15.8C18.6419 15.8 19 15.4419 19 15C19 14.5582 18.6419 14.2 18.2 14.2C17.7582 14.2 17.4 14.5582 17.4 15C17.4 15.4419 17.7582 15.8 18.2 15.8Z" fill="#4FD1C5"/>
<path d="M15.8 15C15.8 15.4419 15.4419 15.8 15 15.8C14.5582 15.8 14.2 15.4419 14.2 15C14.2 14.5582 14.5582 14.2 15 14.2C15.4419 14.2 15.8 14.5582 15.8 15Z" fill="#4FD1C5"/>
<path d="M15 19C15.4419 19 15.8 18.6418 15.8 18.2C15.8 17.7582 15.4419 17.4 15 17.4C14.5582 17.4 14.2 17.7582 14.2 18.2C14.2 18.6418 14.5582 19 15 19Z" fill="#4FD1C5"/>
<path d="M19 18.2C19 18.6418 18.6419 19 18.2 19C17.7582 19 17.4 18.6418 17.4 18.2C17.4 17.7582 17.7582 17.4 18.2 17.4C18.6419 17.4 19 17.7582 19 18.2Z" fill="#4FD1C5"/>
<path fill-rule="evenodd" clip-rule="evenodd" d="M15 7C15.4418 7 15.8 7.35818 15.8 7.8H18.2C18.2 7.35818 18.5582 7 19 7C19.4418 7 19.8 7.35818 19.8 7.8C21.5673 7.8 23 9.23269 23 11V19.8C23 21.5673 21.5673 23 19.8 23H10.2C8.43269 23 7 21.5673 7 19.8V11C7 9.23269 8.43269 7.8 10.2 7.8C10.2 7.35818 10.5582 7 11 7C11.4418 7 11.8 7.35818 11.8 7.8H14.2C14.2 7.35818 14.5582 7 15 7ZM8.6 12.6V19.8C8.6 20.6837 9.31634 21.4 10.2 21.4H19.8C20.6837 21.4 21.4 20.6837 21.4 19.8V12.6H8.6ZM21.4 11C21.4 10.1163 20.6837 9.4 19.8 9.4C19.8 9.84182 19.4418 10.2 19 10.2C18.5582 10.2 18.2 9.84182 18.2 9.4H15.8C15.8 9.84182 15.4418 10.2 15 10.2C14.5582 10.2 14.2 9.84182 14.2 9.4H11.8C11.8 9.84182 11.4418 10.2 11 10.2C10.5582 10.2 10.2 9.84182 10.2 9.4C9.31634 9.4 8.6 10.1163 8.6 11H21.4Z" fill="#4FD1C5"/>
</svg>
