<svg width="18" height="18" viewBox="0 0 18 18" fill="none" xmlns="http://www.w3.org/2000/svg">
<path d="M9 0C4.02975 0 0 4.02975 0 9C0 13.9703 4.02975 18 9 18C13.9703 18 18 13.9703 18 9C18 4.02975 13.9703 0 9 0ZM12.5303 11.4697C12.8235 11.763 12.8235 12.237 12.5303 12.5303C12.384 12.6765 12.192 12.75 12 12.75C11.808 12.75 11.616 12.6765 11.4697 12.5303L9 10.0605L6.53025 12.5303C6.384 12.6765 6.192 12.75 6 12.75C5.808 12.75 5.616 12.6765 5.46975 12.5303C5.1765 12.237 5.1765 11.763 5.46975 11.4697L7.9395 9L5.46975 6.53025C5.1765 6.237 5.1765 5.763 5.46975 5.46975C5.763 5.1765 6.237 5.1765 6.53025 5.46975L9 7.9395L11.4697 5.46975C11.763 5.1765 12.237 5.1765 12.5303 5.46975C12.8235 5.763 12.8235 6.237 12.5303 6.53025L10.0605 9L12.5303 11.4697Z" fill="#A0AEC0"/>
</svg>
