<svg width="20" height="30" viewBox="0 0 20 30" fill="none" xmlns="http://www.w3.org/2000/svg">
<path fill-rule="evenodd" clip-rule="evenodd" d="M8.26915 0C8.08561 0 7.9266 0.140982 7.9266 0.324519V2.97476C6.61448 3.23057 5.35421 3.67631 4.21266 4.32692C3.40117 4.78942 2.72698 5.36309 2.15737 6.00361C1.59537 6.63556 1.21855 7.34043 0.967466 8.11298C0.859441 8.44536 0.742126 8.80778 0.697033 9.23077C0.651779 9.6553 0.649016 10.1205 0.679004 10.601C0.707499 11.0576 0.810921 11.5238 0.967466 12.0072C1.11776 12.4713 1.2921 12.9561 1.6165 13.3954C3.23339 15.5854 5.55641 16.3251 7.9266 16.857V22.2296C7.47334 22.1297 7.04114 22.0131 6.62852 21.869C5.82407 21.5879 4.99808 21.1613 4.12251 20.6611C0.211713 18.4266 -1.55452 23.7604 1.68862 25.2224C3.01704 25.8212 4.21575 26.361 5.3665 26.6466C6.26335 26.8693 7.11434 27.0278 7.9266 27.1334V29.6755C7.9266 29.859 8.08561 30 8.26915 30H11.4062C11.5897 30 11.7307 29.859 11.7307 29.6755V27.2236C12.7109 27.1499 13.6723 26.9892 14.5071 26.7368C15.6135 26.4022 16.5116 25.9552 17.2115 25.4026C17.9227 24.8411 18.4356 24.2336 18.816 23.5637C19.2055 22.8777 19.4897 22.1735 19.5732 21.4543C19.6896 20.4528 19.7388 19.5105 19.5732 18.6599C19.4036 17.7881 19.0207 16.9665 18.4374 16.1899C17.9418 15.5301 16.9987 14.8629 15.5889 14.2248C14.5926 13.7738 13.2976 13.3353 11.7307 12.9447V7.64423C12.1446 7.71904 12.5319 7.81413 12.8845 7.93269C13.7228 8.21455 14.4517 8.54945 15.1021 8.92428C18.2211 10.7219 20.5924 6.75957 17.7703 4.95793C17.0466 4.4959 16.0779 3.83408 14.6333 3.37139C13.6903 3.06933 12.7171 2.88218 11.7307 2.79447V0.324519C11.7307 0.140982 11.5897 0 11.4062 0H8.26915ZM7.9266 7.80649V12.0072C7.58343 11.8898 7.26423 11.7561 6.9891 11.5925C6.61495 11.3701 6.30887 11.0966 6.12372 10.7272C5.91867 10.318 5.94733 9.82896 6.08766 9.39303C6.1659 9.14997 6.35051 8.89006 6.48429 8.72596C6.68663 8.47778 6.93477 8.29221 7.2415 8.11298C7.44277 7.99537 7.67828 7.89494 7.9266 7.80649ZM11.7307 17.7404C12.144 17.8593 12.5474 17.9813 12.9386 18.137C13.633 18.4135 14.4897 19.0145 14.6874 19.6514C14.851 20.1786 14.8203 20.7877 14.5071 21.22C13.8191 22.1696 12.9705 22.3804 11.947 22.5C11.878 22.5081 11.8008 22.5117 11.7307 22.518V17.7404Z" fill="#2D3748"/>
</svg>
