<?xml version="1.0" encoding="utf-8"?>
<svg width="42" height="41" viewBox="5.873 1.897 30.324 30.482" fill="none" xmlns="http://www.w3.org/2000/svg">
  <g filter="url(#filter0_d)">
    <rect x="6" y="2" width="30" height="30" rx="12" style="fill: rgb(255, 255, 255);"/>
  </g>
  <path d="M21 8C16.0312 8 12 12.0312 12 17C12 21.9687 16.0312 26 21 26C25.9687 26 30 21.9687 30 17C30 12.0312 25.9687 8 21 8ZM20.7187 22.25C20.5333 22.25 20.3521 22.195 20.1979 22.092C20.0437 21.989 19.9236 21.8426 19.8526 21.6713C19.7817 21.5 19.7631 21.3115 19.7993 21.1296C19.8354 20.9477 19.9247 20.7807 20.0558 20.6496C20.1869 20.5185 20.354 20.4292 20.5359 20.393C20.7177 20.3568 20.9062 20.3754 21.0775 20.4464C21.2488 20.5173 21.3952 20.6375 21.4983 20.7917C21.6013 20.9458 21.6562 21.1271 21.6562 21.3125C21.6562 21.5611 21.5575 21.7996 21.3817 21.9754C21.2058 22.1512 20.9674 22.25 20.7187 22.25ZM22.2862 17.4687C21.5264 17.9787 21.4219 18.4461 21.4219 18.875C21.4219 19.049 21.3527 19.216 21.2297 19.339C21.1066 19.4621 20.9397 19.5312 20.7656 19.5312C20.5916 19.5312 20.4247 19.4621 20.3016 19.339C20.1785 19.216 20.1094 19.049 20.1094 18.875C20.1094 17.848 20.5819 17.0314 21.5541 16.3784C22.4578 15.7719 22.9687 15.3875 22.9687 14.5423C22.9687 13.9677 22.6406 13.5312 21.9614 13.2083C21.8016 13.1323 21.4458 13.0583 21.008 13.0634C20.4586 13.0705 20.032 13.2017 19.7034 13.4661C19.0837 13.9648 19.0312 14.5077 19.0312 14.5156C19.0271 14.6018 19.006 14.6863 18.9692 14.7644C18.9324 14.8424 18.8805 14.9124 18.8167 14.9704C18.7528 15.0284 18.6781 15.0732 18.5969 15.1024C18.5157 15.1315 18.4295 15.1444 18.3434 15.1402C18.2572 15.1361 18.1727 15.115 18.0946 15.0782C18.0166 15.0414 17.9466 14.9895 17.8886 14.9256C17.8306 14.8618 17.7857 14.7871 17.7566 14.7059C17.7275 14.6247 17.7146 14.5385 17.7187 14.4523C17.7239 14.3384 17.8031 13.3123 18.8798 12.4461C19.4381 11.997 20.1483 11.7636 20.9892 11.7533C21.5845 11.7463 22.1437 11.847 22.523 12.0261C23.6578 12.5628 24.2812 13.4577 24.2812 14.5423C24.2812 16.1281 23.2214 16.8402 22.2862 17.4687Z" fill="#4FD1C5"/>
  <defs>
    <filter id="filter0_d" x="0.5" y="-2.38419e-07" width="41" height="41" filterUnits="userSpaceOnUse" color-interpolation-filters="sRGB">
      <feFlood flood-opacity="0" result="BackgroundImageFix"/>
      <feColorMatrix in="SourceAlpha" type="matrix" values="0 0 0 0 0 0 0 0 0 0 0 0 0 0 0 0 0 0 127 0" result="hardAlpha"/>
      <feOffset dy="3.5"/>
      <feGaussianBlur stdDeviation="2.75"/>
      <feColorMatrix type="matrix" values="0 0 0 0 0 0 0 0 0 0 0 0 0 0 0 0 0 0 0.02 0"/>
      <feBlend mode="normal" in2="BackgroundImageFix" result="effect1_dropShadow"/>
      <feBlend mode="normal" in="SourceGraphic" in2="effect1_dropShadow" result="shape"/>
    </filter>
  </defs>
</svg>