<svg width="30" height="30" viewBox="0 0 30 30" fill="none" xmlns="http://www.w3.org/2000/svg">
<path d="M15.1629 10.4675C15.1193 10.4258 15.0612 10.4025 15.0009 10.4025C14.9405 10.4025 14.8825 10.4258 14.8389 10.4675L9.44531 15.6199C9.42241 15.6419 9.40418 15.6682 9.39175 15.6973C9.37931 15.7265 9.37291 15.7579 9.37295 15.7896L9.37207 20.6253C9.37207 20.874 9.47084 21.1124 9.64666 21.2882C9.82247 21.464 10.0609 21.5628 10.3096 21.5628H13.125C13.2493 21.5628 13.3685 21.5134 13.4565 21.4255C13.5444 21.3376 13.5937 21.2184 13.5937 21.0941V17.1097C13.5937 17.0475 13.6184 16.9879 13.6624 16.944C13.7063 16.9 13.766 16.8753 13.8281 16.8753H16.1719C16.234 16.8753 16.2936 16.9 16.3376 16.944C16.3816 16.9879 16.4062 17.0475 16.4062 17.1097V21.0941C16.4062 21.2184 16.4556 21.3376 16.5435 21.4255C16.6314 21.5134 16.7507 21.5628 16.875 21.5628H19.6893C19.9379 21.5628 20.1764 21.464 20.3522 21.2882C20.528 21.1124 20.6268 20.874 20.6268 20.6253V15.7896C20.6268 15.7579 20.6204 15.7265 20.608 15.6973C20.5955 15.6682 20.5773 15.6419 20.5544 15.6199L15.1629 10.4675Z" fill="black"/>
<path d="M21.8825 14.6537L19.6911 12.5572V9.37587C19.6911 9.25155 19.6417 9.13232 19.5538 9.04441C19.4659 8.95651 19.3467 8.90712 19.2223 8.90712H17.8161C17.6918 8.90712 17.5725 8.95651 17.4846 9.04441C17.3967 9.13232 17.3473 9.25155 17.3473 9.37587V10.3134L15.6505 8.69091C15.4917 8.53036 15.2556 8.43837 15.0004 8.43837C14.7461 8.43837 14.5105 8.53036 14.3517 8.6912L8.1203 14.6531C7.93807 14.8289 7.91522 15.1181 8.08104 15.3085C8.12268 15.3566 8.17367 15.3956 8.23089 15.4234C8.28812 15.4511 8.3504 15.4669 8.41392 15.4698C8.47745 15.4727 8.54091 15.4627 8.60043 15.4403C8.65995 15.4179 8.71429 15.3836 8.76014 15.3395L14.8392 9.53056C14.8829 9.48883 14.9409 9.46555 15.0013 9.46555C15.0616 9.46555 15.1196 9.48883 15.1633 9.53056L21.2429 15.3395C21.3325 15.4254 21.4525 15.4723 21.5765 15.4699C21.7006 15.4675 21.8186 15.416 21.9048 15.3266C22.0846 15.1403 22.0697 14.8327 21.8825 14.6537Z" fill="black"/>
</svg>
