<svg width="44" height="40" viewBox="0 0 44 40" fill="none" xmlns="http://www.w3.org/2000/svg">
<path d="M3.63636 0C1.62727 0 0 1.62727 0 3.63636V9.09091V38.1818C4.82125e-05 38.664 0.191622 39.1264 0.532586 39.4674C0.873551 39.8084 1.33598 40 1.81818 40H41.8182C42.3004 40 42.7628 39.8084 43.1038 39.4674C43.4447 39.1264 43.6363 38.664 43.6364 38.1818V7.27273V3.63636C43.6364 1.62727 42.0091 0 40 0H3.63636ZM3.63636 9.09091H40V36.3636H3.63636V9.09091ZM9.09091 14.5455C8.84998 14.542 8.61077 14.5866 8.38719 14.6764C8.16362 14.7662 7.96012 14.8996 7.78854 15.0688C7.61696 15.238 7.48071 15.4396 7.38772 15.6618C7.29472 15.8841 7.24683 16.1227 7.24683 16.3636C7.24683 16.6046 7.29472 16.8431 7.38772 17.0654C7.48071 17.2877 7.61696 17.4893 7.78854 17.6585C7.96012 17.8276 8.16362 17.961 8.38719 18.0509C8.61077 18.1407 8.84998 18.1852 9.09091 18.1818H16.3636C16.6046 18.1852 16.8438 18.1407 17.0674 18.0509C17.2909 17.961 17.4944 17.8276 17.666 17.6585C17.8376 17.4893 17.9738 17.2877 18.0668 17.0654C18.1598 16.8431 18.2077 16.6046 18.2077 16.3636C18.2077 16.1227 18.1598 15.8841 18.0668 15.6618C17.9738 15.4396 17.8376 15.238 17.666 15.0688C17.4944 14.8996 17.2909 14.7662 17.0674 14.6764C16.8438 14.5866 16.6046 14.542 16.3636 14.5455H9.09091ZM23.6364 14.5455C22.6327 14.5455 21.8182 15.36 21.8182 16.3636V30.9091C21.8182 31.9127 22.6327 32.7273 23.6364 32.7273H34.5455C35.5491 32.7273 36.3636 31.9127 36.3636 30.9091V16.3636C36.3636 15.36 35.5491 14.5455 34.5455 14.5455H23.6364ZM9.09091 21.8182C8.84998 21.8148 8.61077 21.8593 8.38719 21.9491C8.16362 22.039 7.96012 22.1724 7.78854 22.3415C7.61696 22.5107 7.48071 22.7123 7.38772 22.9346C7.29472 23.1569 7.24683 23.3954 7.24683 23.6364C7.24683 23.8773 7.29472 24.1159 7.38772 24.3382C7.48071 24.5604 7.61696 24.762 7.78854 24.9312C7.96012 25.1004 8.16362 25.2338 8.38719 25.3236C8.61077 25.4134 8.84998 25.458 9.09091 25.4545H16.3636C16.6046 25.458 16.8438 25.4134 17.0674 25.3236C17.2909 25.2338 17.4944 25.1004 17.666 24.9312C17.8376 24.762 17.9738 24.5604 18.0668 24.3382C18.1598 24.1159 18.2077 23.8773 18.2077 23.6364C18.2077 23.3954 18.1598 23.1569 18.0668 22.9346C17.9738 22.7123 17.8376 22.5107 17.666 22.3415C17.4944 22.1724 17.2909 22.039 17.0674 21.9491C16.8438 21.8593 16.6046 21.8148 16.3636 21.8182H9.09091ZM9.09091 29.0909C8.84998 29.0875 8.61077 29.132 8.38719 29.2219C8.16362 29.3117 7.96012 29.4451 7.78854 29.6143C7.61696 29.7834 7.48071 29.985 7.38772 30.2073C7.29472 30.4296 7.24683 30.6681 7.24683 30.9091C7.24683 31.15 7.29472 31.3886 7.38772 31.6109C7.48071 31.8332 7.61696 32.0348 7.78854 32.2039C7.96012 32.3731 8.16362 32.5065 8.38719 32.5963C8.61077 32.6862 8.84998 32.7307 9.09091 32.7273H16.3636C16.6046 32.7307 16.8438 32.6862 17.0674 32.5963C17.2909 32.5065 17.4944 32.3731 17.666 32.2039C17.8376 32.0348 17.9738 31.8332 18.0668 31.6109C18.1598 31.3886 18.2077 31.15 18.2077 30.9091C18.2077 30.6681 18.1598 30.4296 18.0668 30.2073C17.9738 29.985 17.8376 29.7834 17.666 29.6143C17.4944 29.4451 17.2909 29.3117 17.0674 29.2219C16.8438 29.132 16.6046 29.0875 16.3636 29.0909H9.09091Z" fill="#A0AEC0"/>
</svg>
