<svg width="40" height="40" viewBox="0 0 40 40" fill="none" xmlns="http://www.w3.org/2000/svg">
<path d="M37.6842 17.6842H22.3158V2.31579C22.3158 1.05263 21.2632 0 20 0C18.7368 0 17.6842 1.05263 17.6842 2.31579V17.6842H2.31579C1.05263 17.6842 0 18.7368 0 20C0 20.6316 0.252632 21.2211 0.673684 21.6421C1.09474 22.0632 1.68421 22.3158 2.31579 22.3158H17.6842V37.6842C17.6842 38.3158 17.9368 38.9053 18.3579 39.3263C18.7789 39.7474 19.3684 40 20 40C21.2632 40 22.3158 38.9474 22.3158 37.6842V22.3158H37.6842C38.9474 22.3158 40 21.2632 40 20C40 18.7368 38.9474 17.6842 37.6842 17.6842Z" fill="#2D3748"/>
</svg>
