<svg width="39" height="30" viewBox="0 0 39 30" fill="none" xmlns="http://www.w3.org/2000/svg">
<path d="M28.6017 0.00019261C28.5004 0.00226389 28.3996 0.0156457 28.3012 0.0400894H19.1515H19.0159H9.75715C9.68945 0.0287306 9.62098 0.0225067 9.55234 0.0214709C9.32096 0.020196 9.09307 0.0778913 8.89018 0.189113C8.68728 0.300335 8.51606 0.461417 8.39268 0.657159L0.458542 9.91587C0.307859 10.0494 0.188667 10.2147 0.109547 10.3999C0.0304265 10.5851 -0.00665274 10.7855 0.00097856 10.9867C0.00860986 11.1879 0.0607618 11.3849 0.15368 11.5635C0.246597 11.7422 0.377969 11.898 0.538336 12.0198L18.0876 29.569C18.092 29.5744 18.0964 29.5797 18.1009 29.585L18.1195 29.6009C18.1836 29.6654 18.254 29.7233 18.3296 29.7738C18.3332 29.7756 18.3367 29.7774 18.3403 29.7791C18.3731 29.801 18.4068 29.8214 18.4413 29.8403C18.4484 29.843 18.4555 29.8457 18.4626 29.8483C18.6192 29.9291 18.7899 29.9788 18.9653 29.9946C19.0113 29.9987 19.0575 30.0005 19.1036 29.9999C19.1214 29.9994 19.1391 29.9985 19.1568 29.9972C19.1799 29.996 19.203 29.9943 19.226 29.9919C19.2304 29.9919 19.2348 29.9919 19.2393 29.9919C19.2473 29.9902 19.2553 29.9884 19.2632 29.9866C19.2998 29.9819 19.3362 29.9757 19.3723 29.968C19.4081 29.9605 19.4436 29.9517 19.4787 29.9414C19.4876 29.9388 19.4964 29.9361 19.5053 29.9334C19.515 29.93 19.5248 29.9264 19.5345 29.9228C19.61 29.8964 19.6829 29.8635 19.7526 29.8244C19.7535 29.8235 19.7544 29.8226 19.7553 29.8217C19.7861 29.8043 19.8163 29.7856 19.8457 29.7658C19.8529 29.7606 19.8599 29.7553 19.867 29.7499C19.9305 29.7054 19.9901 29.6556 20.0452 29.6009L20.0558 29.5929C20.0621 29.5859 20.0683 29.5788 20.0745 29.5717L37.629 12.0171C37.7888 11.8951 37.9195 11.7393 38.0119 11.5608C38.1043 11.3823 38.156 11.1855 38.1634 10.9847C38.1708 10.7838 38.1336 10.5838 38.0545 10.399C37.9755 10.2142 37.8565 10.0492 37.7062 9.91587L29.8305 0.728973C29.7133 0.505613 29.5363 0.319202 29.3194 0.190522C29.1024 0.0618426 28.8539 -0.00404911 28.6017 0.00019261ZM11.353 2.76371H16.4332L12.8053 7.8439L11.353 2.76371ZM21.7315 2.76371H26.8117L25.3594 7.8439L21.7315 2.76371ZM19.0824 3.74783L23.2423 9.57275H14.9224L19.0824 3.74783ZM8.93527 4.20797L10.4673 9.57275H4.33917L8.93527 4.20797ZM29.2294 4.20797L33.8255 9.57275H27.6974L29.2294 4.20797ZM4.66632 12.2964H11.3371L15.5076 23.1377L4.66632 12.2964ZM14.2575 12.2964H23.9072L19.0824 24.8426L14.2575 12.2964ZM26.8276 12.2964H33.4984L22.6571 23.1377L26.8276 12.2964Z" fill="white"/>
</svg>
