<?xml version="1.0" encoding="utf-8"?>
<svg width="42" height="41" viewBox="5.794 1.837 30.474 30.322" fill="none" xmlns="http://www.w3.org/2000/svg">
  <g filter="url(#filter0_d)">
    <rect x="6" y="2" width="30" height="30" rx="12" style="fill: rgb(255, 255, 255);"/>
  </g>
  <path d="M23.2453 11.3917C22.6752 10.7762 21.8789 10.4373 21 10.4373C20.1164 10.4373 19.3175 10.7742 18.75 11.3859C18.1764 12.0043 17.8969 12.8449 17.9625 13.7525C18.0926 15.5431 19.4552 16.9998 21 16.9998C22.5449 16.9998 23.9051 15.5434 24.0372 13.7531C24.1037 12.8537 23.8225 12.0149 23.2453 11.3917Z" fill="#4FD1C5"/>
  <path d="M26.1564 23.5615H15.8439C15.7089 23.5633 15.5753 23.5349 15.4526 23.4785C15.33 23.4221 15.2214 23.3391 15.1349 23.2354C14.9445 23.0078 14.8677 22.697 14.9246 22.3826C15.1718 21.0109 15.9435 19.8587 17.1564 19.0498C18.234 18.3317 19.5989 17.9365 21.0002 17.9365C22.4014 17.9365 23.7664 18.332 24.8439 19.0498C26.0568 19.8584 26.8285 21.0106 27.0757 22.3823C27.1326 22.6967 27.0558 23.0075 26.8654 23.2352C26.7789 23.3388 26.6704 23.4219 26.5478 23.4784C26.4251 23.5348 26.2914 23.5632 26.1564 23.5615Z" fill="#4FD1C5"/>
  <defs>
    <filter id="filter0_d" x="0.5" y="-2.38419e-07" width="41" height="41" filterUnits="userSpaceOnUse" color-interpolation-filters="sRGB">
      <feFlood flood-opacity="0" result="BackgroundImageFix"/>
      <feColorMatrix in="SourceAlpha" type="matrix" values="0 0 0 0 0 0 0 0 0 0 0 0 0 0 0 0 0 0 127 0" result="hardAlpha"/>
      <feOffset dy="3.5"/>
      <feGaussianBlur stdDeviation="2.75"/>
      <feColorMatrix type="matrix" values="0 0 0 0 0 0 0 0 0 0 0 0 0 0 0 0 0 0 0.02 0"/>
      <feBlend mode="normal" in2="BackgroundImageFix" result="effect1_dropShadow"/>
      <feBlend mode="normal" in="SourceGraphic" in2="effect1_dropShadow" result="shape"/>
    </filter>
  </defs>
</svg>