<svg width="22" height="15" viewBox="0 0 22 15" fill="none" xmlns="http://www.w3.org/2000/svg">
<path d="M20 0H2C0.895 0 0 0.610227 0 1.36364V13.6364C0 14.3898 0.895 15 2 15H20C21.105 15 22 14.3898 22 13.6364V1.36364C22 0.610227 21.105 0 20 0ZM19 10.2273C19 11.357 17.657 12.2727 16 12.2727H10V13.6364L7 11.5909L10 9.54545V10.9091H16C16.552 10.9091 17 10.6036 17 10.2273V7.5C17 7.12364 16.552 6.81818 16 6.81818H14C13.448 6.81818 13 6.51273 13 6.13636C13 5.76 13.448 5.45455 14 5.45455H16C17.657 5.45455 19 6.37023 19 7.5V10.2273Z" fill="#A0AEC0"/>
</svg>
