<svg width="37" height="30" viewBox="0 0 37 30" fill="none" xmlns="http://www.w3.org/2000/svg">
<path d="M36.9175 3.55104C35.5587 4.15448 34.0991 4.56056 32.5671 4.74372C34.1318 3.80662 35.3315 2.32287 35.8966 0.553742C34.4342 1.42127 32.8127 2.05168 31.0862 2.39245C29.7047 0.920062 27.7368 0 25.5587 0C21.3758 0 17.9852 3.39202 17.9852 7.57348C17.9852 8.16698 18.0534 8.74627 18.1812 9.29859C11.887 8.98339 6.30697 5.96763 2.56993 1.38435C1.91964 2.50319 1.54622 3.80378 1.54622 5.19381C1.54622 7.82053 2.88229 10.1391 4.9141 11.4965C3.67315 11.4568 2.50461 11.116 1.48374 10.5495C1.48374 10.5821 1.48374 10.612 1.48374 10.6446C1.48374 14.3149 4.09343 17.3761 7.55928 18.0704C6.92461 18.2436 6.25444 18.3359 5.56297 18.3359C5.07596 18.3359 4.60031 18.2877 4.13886 18.201C5.10294 21.2097 7.90004 23.4005 11.214 23.4616C8.62275 25.4934 5.35709 26.7045 1.80747 26.7045C1.19693 26.7045 0.593497 26.669 0 26.598C3.35226 28.7463 7.3321 30 11.6101 30C25.5417 30 33.1577 18.4595 33.1577 8.45094C33.1577 8.12296 33.1506 7.79639 33.1364 7.47125C34.6173 6.4021 35.9023 5.06886 36.9175 3.55104Z" fill="white"/>
</svg>
