<?xml version="1.0" encoding="utf-8"?>
<!-- Generator: Adobe Illustrator 23.0.6, SVG Export Plug-In . SVG Version: 6.00 Build 0)  -->
<svg version="1.1" id="Layer_1" xmlns="http://www.w3.org/2000/svg" xmlns:xlink="http://www.w3.org/1999/xlink" x="0px" y="0px"
	 viewBox="0 0 20 30" style="enable-background:new 0 0 20 30;" xml:space="preserve">
<path d="M8.01,3.05c-1.1,0-1.99,0.89-1.99,1.99v10.92H0.99c-0.4,0-0.76,0.24-0.92,0.61c-0.15,0.37-0.07,0.8,0.22,1.08l9.01,9.01
	c0.39,0.39,1.02,0.39,1.4,0l9.01-9.01c0.19-0.19,0.29-0.44,0.29-0.7c0-0.13-0.03-0.26-0.08-0.38c-0.15-0.37-0.52-0.61-0.92-0.61
	h-5.04V5.04c0-1.1-0.89-1.99-1.99-1.99H8.01z"/>
</svg>
