<?xml version="1.0" encoding="utf-8"?>
<!-- Generator: Adobe Illustrator 23.0.6, SVG Export Plug-In . SVG Version: 6.00 Build 0)  -->
<svg version="1.1" id="Layer_1" xmlns="http://www.w3.org/2000/svg" xmlns:xlink="http://www.w3.org/1999/xlink" x="0px" y="0px"
	 viewBox="0 0 20 30" style="enable-background:new 0 0 20 30;" xml:space="preserve">
<path d="M11.99,26.95c1.1,0,1.99-0.89,1.99-1.99V14.04h5.03c0.4,0,0.76-0.24,0.92-0.61c0.15-0.37,0.07-0.8-0.22-1.08L10.7,3.34
	c-0.39-0.39-1.02-0.39-1.4,0l-9.01,9.01C0.1,12.54,0,12.79,0,13.05c0,0.13,0.03,0.26,0.08,0.38C0.23,13.8,0.6,14.04,1,14.04h5.04
	v10.92c0,1.1,0.89,1.99,1.99,1.99C8.03,26.95,11.99,26.95,11.99,26.95z"/>
</svg>
