<svg width="32" height="32" viewBox="0 0 32 32" fill="none" xmlns="http://www.w3.org/2000/svg">
<path d="M1.48741 1C1.20157 1.05389 0.995392 1.30692 1.00008 1.59979V3.39916C1.00242 3.55379 1.06099 3.70139 1.16877 3.81151L10.5967 13.8205V24.3918C10.6014 24.6003 10.7162 24.7924 10.8966 24.8978L16.8945 28.4966C17.0772 28.602 17.3045 28.6044 17.4896 28.4989C17.6723 28.3958 17.7895 28.2014 17.7942 27.9905V13.8205L27.1284 3.90523C27.1354 3.8982 27.1401 3.89351 27.1471 3.88649L27.2221 3.81151C27.2502 3.7834 27.276 3.7506 27.2971 3.71779C27.3111 3.70608 27.3229 3.69437 27.3346 3.68031C27.3697 3.60299 27.3885 3.52099 27.3908 3.43664C27.3908 3.42493 27.3908 3.41087 27.3908 3.39916C27.3931 3.3687 27.3931 3.3359 27.3908 3.30544V1.59979C27.3908 1.26944 27.1214 1 26.791 1H1.59987C1.58112 1 1.56238 1 1.54364 1C1.52489 1 1.50615 1 1.48741 1ZM2.19966 2.19958H26.1912V3.17424L16.932 12.9958H11.4589L2.19966 3.17424V2.19958ZM11.7963 14.1954H16.5946V26.9409L11.7963 24.0731V14.1954ZM20.7369 20.1745C20.7111 20.1792 20.6853 20.1862 20.6619 20.1933C20.437 20.2331 20.2566 20.3971 20.1933 20.615C20.1301 20.8352 20.1957 21.0695 20.362 21.2241L24.7292 25.5914L20.362 29.9586C20.123 30.1975 20.123 30.5818 20.362 30.8208C20.601 31.0597 20.9852 31.0597 21.2242 30.8208L25.5914 26.4536L29.9586 30.8208C30.1976 31.0597 30.5819 31.0597 30.8208 30.8208C31.0598 30.5818 31.0598 30.1975 30.8208 29.9586L26.4536 25.5914L30.8208 21.2241C31.0153 21.0437 31.0668 20.7579 30.9497 20.5213C30.8349 20.2823 30.5748 20.1511 30.3148 20.1933C30.1812 20.2073 30.0547 20.2682 29.9586 20.3619L25.5914 24.7292L21.2242 20.3619C21.1 20.2284 20.9196 20.1605 20.7369 20.1745Z" fill="#A0AEC0" stroke="#A0AEC0" stroke-width="1.5"/>
</svg>
