<svg width="31" height="30" viewBox="0 0 31 30" fill="none" xmlns="http://www.w3.org/2000/svg">
<path d="M3.33666 0.00144525C2.67564 0.00226377 2.02987 0.200117 1.48184 0.569729C0.933816 0.939342 0.508411 1.46393 0.259974 2.07649C0.0115359 2.68905 -0.0486562 3.36176 0.0870867 4.0087C0.22283 4.65563 0.548345 5.24741 1.02205 5.70844L10.3065 14.9929L1.02205 24.2773C0.703014 24.5836 0.448304 24.9505 0.272837 25.3565C0.0973693 25.7625 0.00467118 26.1994 0.000172035 26.6416C-0.00432711 27.0839 0.0794631 27.5226 0.246635 27.932C0.413807 28.3415 0.661 28.7135 0.973738 29.0262C1.28648 29.339 1.65847 29.5862 2.06794 29.7533C2.4774 29.9205 2.91611 30.0043 3.35837 29.9998C3.80062 29.9953 4.23753 29.9026 4.64351 29.7271C5.04949 29.5517 5.41638 29.297 5.72269 28.9779L15.0071 19.6935L24.2915 28.9779C24.5978 29.297 24.9647 29.5517 25.3707 29.7272C25.7767 29.9026 26.2136 29.9953 26.6559 29.9998C27.0981 30.0043 27.5368 29.9205 27.9463 29.7534C28.3558 29.5862 28.7278 29.339 29.0405 29.0263C29.3533 28.7135 29.6004 28.3415 29.7676 27.9321C29.9348 27.5226 30.0186 27.0839 30.0141 26.6416C30.0096 26.1994 29.9169 25.7625 29.7414 25.3565C29.5659 24.9505 29.3112 24.5836 28.9922 24.2773L19.7078 14.9929L28.9922 5.70844C29.4725 5.24152 29.8006 4.64036 29.9335 3.98376C30.0663 3.32717 29.9977 2.64576 29.7366 2.02883C29.4755 1.4119 29.0341 0.888242 28.4703 0.526472C27.9065 0.164701 27.2465 -0.0183018 26.5769 0.00144525C25.7133 0.0271784 24.8936 0.388119 24.2915 1.0078L15.0071 10.2922L5.72269 1.0078C5.41253 0.688966 5.04154 0.435617 4.63169 0.262756C4.22184 0.0898948 3.78147 0.00103695 3.33666 0.00144525Z" fill="white"/>
</svg>
