<svg width="41" height="30" viewBox="0 0 41 30" fill="none" xmlns="http://www.w3.org/2000/svg">
<path d="M16.4445 2.29737C16.1285 1.41898 15.8096 0.533342 15.8038 0.521746C15.6516 0.181116 15.2994 -0.0334091 14.9283 0.00427763C14.6935 0.023121 9.13758 0.501453 5.57763 3.36419C3.71649 5.08329 0 15.134 0 23.8237C0 23.9774 0.0391363 24.1267 0.115959 24.26C2.683 28.7679 9.68114 29.9478 11.2756 29.9986C11.2857 30 11.2944 30 11.3031 30C11.5843 30 11.8481 29.8652 12.0163 29.6376L13.7412 27.3011C10.8915 26.8677 10.3769 26.3024 10.2566 26.2139C9.61301 25.74 9.13758 25.0761 9.71447 24.2383C10.158 23.5875 11.0886 23.3729 11.8017 23.7397C12.5323 24.0803 14.4876 25.1761 20.2928 25.1471C26.0575 25.1297 28.5883 23.9223 28.6245 23.8962C29.5928 23.4599 30.3479 23.6396 30.819 24.2861C31.38 25.166 30.9799 25.7617 30.3392 26.2342C30.2189 26.3226 29.9276 26.5705 26.8663 27.2953L28.5694 29.6362C28.7361 29.8652 29.0014 29.9986 29.2826 29.9986C29.2927 29.9986 29.3014 29.9986 29.3101 29.9971C30.906 29.9464 37.9041 28.7665 40.4697 24.2586C40.5466 24.1252 40.5857 23.9759 40.5857 23.8223C40.5857 15.134 36.8692 5.08329 34.9617 3.32651C31.4481 0.502902 25.8922 0.0245705 25.6574 0.00427763C25.2863 -0.0276111 24.9341 0.182565 24.7819 0.521746C24.7761 0.533342 24.4659 1.43347 24.1659 2.30172C24.1659 2.30172 21.8018 1.95529 20.2928 1.95529C18.7839 1.95529 16.4445 2.29737 16.4445 2.29737ZM14.4949 20.7986C12.8932 20.7986 11.5959 18.8665 11.5959 16.4806C11.5959 14.0948 12.8932 12.1626 14.4949 12.1626C16.1024 11.9234 17.3591 14.0948 17.3939 16.4806C17.3939 18.8665 16.0966 20.7986 14.4949 20.7986ZM26.0908 20.7986C24.4891 20.7986 23.1918 18.8534 23.1918 16.4545C23.1918 14.0556 24.4891 12.1104 26.0908 12.1104C27.6925 12.1104 28.9898 14.0556 28.9898 16.4545C28.9898 18.8534 27.6925 20.7986 26.0908 20.7986Z" fill="white"/>
</svg>
