<?xml version="1.0" encoding="utf-8"?>
<!-- Generator: Adobe Illustrator 23.0.6, SVG Export Plug-In . SVG Version: 6.00 Build 0)  -->
<svg version="1.1" id="Layer_1" xmlns="http://www.w3.org/2000/svg" xmlns:xlink="http://www.w3.org/1999/xlink" x="0px" y="0px"
	 viewBox="0 0 20 30" style="enable-background:new 0 0 20 30;" xml:space="preserve">
<path d="M9.97,1.5c-0.15,0-0.31,0.04-0.43,0.12C9.41,1.69,9.29,1.8,9.21,1.92L1.49,13.24c-0.08,0.12-0.13,0.24-0.15,0.38
	c-0.03,0.13-0.02,0.28,0.02,0.4c0.04,0.13,0.1,0.26,0.18,0.37c0.08,0.11,0.2,0.2,0.32,0.25l7.71,3.85c0.13,0.06,0.28,0.1,0.43,0.1
	c0.15,0,0.3-0.04,0.43-0.1l7.71-3.85c0.13-0.06,0.23-0.15,0.31-0.25c0.09-0.11,0.15-0.23,0.18-0.37c0.04-0.13,0.04-0.27,0.02-0.4
	c-0.03-0.14-0.07-0.26-0.15-0.38L10.8,1.92c-0.09-0.13-0.22-0.24-0.36-0.31C10.3,1.54,10.13,1.5,9.97,1.5z M10,4.17v6.97l6.28,2.27
	L10,16.55v-5.41l-6.19,2.12L10,4.17z M2.25,16.93c-0.18,0.01-0.35,0.06-0.5,0.16s-0.27,0.23-0.34,0.4c-0.07,0.16-0.1,0.34-0.08,0.52
	s0.09,0.34,0.21,0.49l7.71,9.65c0.09,0.12,0.21,0.21,0.33,0.27C9.71,28.46,9.86,28.5,10,28.5s0.29-0.04,0.41-0.1
	s0.24-0.15,0.33-0.27l7.71-9.64c0.14-0.17,0.22-0.39,0.22-0.6c0-0.22-0.07-0.43-0.22-0.6c-0.14-0.17-0.33-0.29-0.55-0.33
	c-0.22-0.04-0.44-0.02-0.64,0.08L10,20.67l-7.28-3.65C2.57,16.95,2.41,16.93,2.25,16.93z M5.78,20.72l3.79,1.89
	c0.14,0.06,0.28,0.1,0.43,0.1v3.28L5.78,20.72z"/>
</svg>
