<svg width="33" height="30" viewBox="0 0 33 30" fill="none" xmlns="http://www.w3.org/2000/svg">
<path d="M23.2012 0C21.4378 0 19.9351 1.1491 19.366 2.72727H1.38306C1.20236 2.72472 1.02296 2.7581 0.855272 2.82548C0.687588 2.89287 0.534968 2.9929 0.406282 3.11978C0.277596 3.24666 0.175411 3.39785 0.105664 3.56456C0.0359169 3.73128 0 3.91019 0 4.09091C0 4.27163 0.0359169 4.45054 0.105664 4.61725C0.175411 4.78397 0.277596 4.93516 0.406282 5.06204C0.534968 5.18892 0.687588 5.28895 0.855272 5.35634C1.02296 5.42372 1.20236 5.4571 1.38306 5.45455H19.366C19.9351 7.03272 21.4378 8.18182 23.2012 8.18182C24.9646 8.18182 26.4673 7.03272 27.0365 5.45455H31.3831C31.5638 5.4571 31.7432 5.42372 31.9108 5.35634C32.0785 5.28895 32.2311 5.18892 32.3598 5.06204C32.4885 4.93516 32.5907 4.78397 32.6604 4.61725C32.7302 4.45054 32.7661 4.27163 32.7661 4.09091C32.7661 3.91019 32.7302 3.73128 32.6604 3.56456C32.5907 3.39785 32.4885 3.24666 32.3598 3.11978C32.2311 2.9929 32.0785 2.89287 31.9108 2.82548C31.7432 2.7581 31.5638 2.72472 31.3831 2.72727H27.0365C26.4673 1.1491 24.9646 0 23.2012 0ZM23.2012 2.72727C23.9428 2.72727 24.5082 3.28474 24.5489 4.01367C24.5459 4.06601 24.5459 4.11847 24.5489 4.17081C24.5069 4.8984 23.9419 5.45455 23.2012 5.45455C22.4597 5.45455 21.8943 4.89708 21.8536 4.16815C21.8566 4.11581 21.8566 4.06334 21.8536 4.01101C21.8956 3.28342 22.4606 2.72727 23.2012 2.72727ZM12.2921 10.9091C10.5287 10.9091 9.02605 12.0582 8.45692 13.6364H1.38306C1.20236 13.6338 1.02296 13.6672 0.855272 13.7346C0.687588 13.802 0.534968 13.902 0.406282 14.0289C0.277596 14.1558 0.175411 14.3069 0.105664 14.4737C0.0359169 14.6404 0 14.8193 0 15C0 15.1807 0.0359169 15.3596 0.105664 15.5263C0.175411 15.6931 0.277596 15.8442 0.406282 15.9711C0.534968 16.098 0.687588 16.198 0.855272 16.2654C1.02296 16.3328 1.20236 16.3662 1.38306 16.3636H8.45692C9.02605 17.9418 10.5287 19.0909 12.2921 19.0909C14.0555 19.0909 15.5582 17.9418 16.1274 16.3636H31.3831C31.5638 16.3662 31.7432 16.3328 31.9108 16.2654C32.0785 16.198 32.2311 16.098 32.3598 15.9711C32.4885 15.8442 32.5907 15.6931 32.6604 15.5263C32.7302 15.3596 32.7661 15.1807 32.7661 15C32.7661 14.8193 32.7302 14.6404 32.6604 14.4737C32.5907 14.3069 32.4885 14.1558 32.3598 14.0289C32.2311 13.902 32.0785 13.802 31.9108 13.7346C31.7432 13.6672 31.5638 13.6338 31.3831 13.6364H16.1274C15.5582 12.0582 14.0555 10.9091 12.2921 10.9091ZM12.2921 13.6364C13.0337 13.6364 13.5991 14.1938 13.6398 14.9228C13.6368 14.9751 13.6368 15.0276 13.6398 15.0799C13.5978 15.8075 13.0328 16.3636 12.2921 16.3636C11.5506 16.3636 10.9852 15.8062 10.9445 15.0772C10.9475 15.0249 10.9475 14.9724 10.9445 14.9201C10.9865 14.1925 11.5515 13.6364 12.2921 13.6364ZM17.7467 21.8182C15.9833 21.8182 14.4806 22.9673 13.9115 24.5455H1.38306C1.20236 24.5429 1.02296 24.5763 0.855272 24.6437C0.687588 24.711 0.534968 24.8111 0.406282 24.938C0.277596 25.0648 0.175411 25.216 0.105664 25.3827C0.0359169 25.5495 0 25.7284 0 25.9091C0 26.0898 0.0359169 26.2687 0.105664 26.4354C0.175411 26.6021 0.277596 26.7533 0.406282 26.8802C0.534968 27.0071 0.687588 27.1071 0.855272 27.1745C1.02296 27.2419 1.20236 27.2753 1.38306 27.2727H13.9115C14.4806 28.8509 15.9833 30 17.7467 30C19.5101 30 21.0128 28.8509 21.5819 27.2727H31.3831C31.5638 27.2753 31.7432 27.2419 31.9108 27.1745C32.0785 27.1071 32.2311 27.0071 32.3598 26.8802C32.4885 26.7533 32.5907 26.6021 32.6604 26.4354C32.7302 26.2687 32.7661 26.0898 32.7661 25.9091C32.7661 25.7284 32.7302 25.5495 32.6604 25.3827C32.5907 25.216 32.4885 25.0648 32.3598 24.938C32.2311 24.8111 32.0785 24.711 31.9108 24.6437C31.7432 24.5763 31.5638 24.5429 31.3831 24.5455H21.5819C21.0128 22.9673 19.5101 21.8182 17.7467 21.8182ZM17.7467 24.5455C18.4883 24.5455 19.0536 25.1029 19.0943 25.8319C19.0913 25.8842 19.0913 25.9367 19.0943 25.989C19.0524 26.7166 18.4874 27.2727 17.7467 27.2727C17.0051 27.2727 16.4397 26.7153 16.399 25.9863C16.4021 25.934 16.4021 25.8815 16.399 25.8292C16.441 25.1016 17.006 24.5455 17.7467 24.5455Z" fill="white"/>
</svg>
