<svg width="36" height="31" viewBox="0 0 36 31" fill="none" xmlns="http://www.w3.org/2000/svg">
<path fill-rule="evenodd" clip-rule="evenodd" d="M10.4316 28.494L14.9796 29.7006V28.1227L15.3509 27.7515H17.9497V29.6077V30.9071H15.1652L11.731 29.4221L10.4316 28.494Z" fill="#CDBDB2"/>
<path fill-rule="evenodd" clip-rule="evenodd" d="M25.2812 28.494L20.8262 29.7006V28.1227L20.4549 27.7515H17.8561V29.6077V30.9071H20.6405L24.0746 29.4221L25.2812 28.494Z" fill="#CDBDB2"/>
<path fill-rule="evenodd" clip-rule="evenodd" d="M15.3507 25.0599L14.9795 28.1226L15.4435 27.7514H20.2698L20.8267 28.1226L20.4554 25.0599L19.7129 24.5957L16.0004 24.6886L15.3507 25.0599Z" fill="#393939"/>
<path fill-rule="evenodd" clip-rule="evenodd" d="M12.8447 4.3623L15.0723 9.5599L16.0933 24.6887H19.713L20.8267 9.5599L22.8687 4.3623H12.8447Z" fill="#F89C35"/>
<path fill-rule="evenodd" clip-rule="evenodd" d="M3.0988 15.7786L0.5 23.2964L6.99699 22.9252H11.1735V19.6768L10.9879 12.9941L10.0598 13.7367L3.0988 15.7786Z" fill="#F89D35"/>
<path fill-rule="evenodd" clip-rule="evenodd" d="M8.01758 16.6138L15.6283 16.7994L14.7931 20.6976L11.1733 19.7694L8.01758 16.6138Z" fill="#D87C30"/>
<path fill-rule="evenodd" clip-rule="evenodd" d="M8.01758 16.7065L11.1733 19.6766V22.6466L8.01758 16.7065Z" fill="#EA8D3A"/>
<path fill-rule="evenodd" clip-rule="evenodd" d="M11.1738 19.7693L14.8864 20.6974L16.0931 24.6885L15.2576 25.1525L11.1738 22.7393V19.7693Z" fill="#F89D35"/>
<path fill-rule="evenodd" clip-rule="evenodd" d="M11.1742 22.7395L10.4316 28.494L15.3509 25.0599L11.1742 22.7395Z" fill="#EB8F35"/>
<path fill-rule="evenodd" clip-rule="evenodd" d="M15.6283 16.7993L16.0925 24.6886L14.7002 20.6511L15.6283 16.7993Z" fill="#EA8E3A"/>
<path fill-rule="evenodd" clip-rule="evenodd" d="M6.90332 22.8324L11.1728 22.7395L10.4303 28.494L6.90332 22.8324Z" fill="#D87C30"/>
<path fill-rule="evenodd" clip-rule="evenodd" d="M2.54191 30.9999L10.431 28.4939L6.90409 22.8323L0.5 23.2963L2.54191 30.9999Z" fill="#EB8F35"/>
<path fill-rule="evenodd" clip-rule="evenodd" d="M15.0715 9.55981L11.0805 12.9011L8.01758 16.6137L15.6283 16.8922L15.0715 9.55981Z" fill="#E8821E"/>
<path fill-rule="evenodd" clip-rule="evenodd" d="M10.4316 28.4939L15.3509 25.0598L14.9796 28.0299V29.7005L11.6383 29.0507L10.4316 28.4939Z" fill="#DFCEC3"/>
<path fill-rule="evenodd" clip-rule="evenodd" d="M25.2812 28.4939L20.4549 25.0598L20.8262 28.0299V29.7005L24.1675 29.0507L25.2812 28.4939Z" fill="#DFCEC3"/>
<path fill-rule="evenodd" clip-rule="evenodd" d="M13.5864 18.47L14.6074 20.6048L10.9876 19.6766L13.5864 18.47Z" fill="#393939"/>
<path fill-rule="evenodd" clip-rule="evenodd" d="M2.44824 0.000244141L15.071 9.56002L12.9363 4.36243L2.44824 0.000244141Z" fill="#E88F35"/>
<path fill-rule="evenodd" clip-rule="evenodd" d="M2.448 0L0.777344 5.10478L1.70549 10.6736L1.05579 11.0449L1.98393 11.8802L1.24141 12.5299L2.26237 13.458L1.61267 14.0149L3.0977 15.8712L10.0588 13.7365C13.4619 11.0139 15.1326 9.62173 15.0707 9.55985C15.0088 9.49798 10.8013 6.31136 2.448 0Z" fill="#8E5A30"/>
<path fill-rule="evenodd" clip-rule="evenodd" d="M32.6141 15.7786L35.2129 23.2964L28.7159 22.9252H24.5393V19.6768L24.725 12.9941L25.6531 13.7367L32.6141 15.7786Z" fill="#F89D35"/>
<path fill-rule="evenodd" clip-rule="evenodd" d="M27.6953 16.6138L20.0846 16.7994L20.9198 20.6976L24.5396 19.7694L27.6953 16.6138Z" fill="#D87C30"/>
<path fill-rule="evenodd" clip-rule="evenodd" d="M27.6953 16.7065L24.5396 19.6766V22.6466L27.6953 16.7065Z" fill="#EA8D3A"/>
<path fill-rule="evenodd" clip-rule="evenodd" d="M24.5391 19.7693L20.8265 20.6974L19.6198 24.6885L20.4552 25.1525L24.5391 22.7393V19.7693Z" fill="#F89D35"/>
<path fill-rule="evenodd" clip-rule="evenodd" d="M24.5387 22.7395L25.2812 28.494L20.4549 25.1527L24.5387 22.7395Z" fill="#EB8F35"/>
<path fill-rule="evenodd" clip-rule="evenodd" d="M20.0846 16.7993L19.6204 24.6886L21.0127 20.6511L20.0846 16.7993Z" fill="#EA8E3A"/>
<path fill-rule="evenodd" clip-rule="evenodd" d="M28.8096 22.8324L24.5401 22.7395L25.2826 28.494L28.8096 22.8324Z" fill="#D87C30"/>
<path fill-rule="evenodd" clip-rule="evenodd" d="M33.171 30.9999L25.2819 28.4939L28.8088 22.8323L35.2129 23.2963L33.171 30.9999Z" fill="#EB8F35"/>
<path fill-rule="evenodd" clip-rule="evenodd" d="M20.6414 9.55981L24.6324 12.9011L27.6953 16.6137L20.0846 16.8922L20.6414 9.55981Z" fill="#E8821E"/>
<path fill-rule="evenodd" clip-rule="evenodd" d="M22.1265 18.47L21.1055 20.6048L24.7253 19.6766L22.1265 18.47Z" fill="#393939"/>
<path fill-rule="evenodd" clip-rule="evenodd" d="M33.2646 0.000244141L20.6419 9.56002L22.7766 4.36243L33.2646 0.000244141Z" fill="#E88F35"/>
<path fill-rule="evenodd" clip-rule="evenodd" d="M33.2649 0L34.9355 5.10478L34.0074 10.6736L34.6571 11.0449L33.729 11.8802L34.4715 12.5299L33.4505 13.458L34.1002 14.0149L32.6152 15.8712L25.6541 13.7365C22.2509 11.0139 20.5803 9.62173 20.6422 9.55985C20.704 9.49798 24.9116 6.31136 33.2649 0Z" fill="#8E5A30"/>
</svg>
