<svg width="34" height="30" viewBox="0 0 34 30" fill="none" xmlns="http://www.w3.org/2000/svg">
<path d="M4.06691 0C2.57601 0 1.36845 1.22045 1.36845 2.72726V27.2726C1.18966 27.27 1.01215 27.3034 0.846237 27.3708C0.680324 27.4382 0.529317 27.5382 0.40199 27.6651C0.274664 27.792 0.173558 27.9432 0.104548 28.1099C0.0355375 28.2766 0 28.4555 0 28.6362C0 28.8169 0.0355375 28.9959 0.104548 29.1626C0.173558 29.3293 0.274664 29.4805 0.40199 29.6074C0.529317 29.7342 0.680324 29.8343 0.846237 29.9017C1.01215 29.969 1.18966 30.0024 1.36845 29.9999H20.2577C20.4365 30.0024 20.614 29.969 20.7799 29.9017C20.9458 29.8343 21.0968 29.7342 21.2241 29.6074C21.3515 29.4805 21.4526 29.3293 21.5216 29.1626C21.5906 28.9959 21.6261 28.8169 21.6261 28.6362C21.6261 28.4555 21.5906 28.2766 21.5216 28.1099C21.4526 27.9432 21.3515 27.792 21.2241 27.6651C21.0968 27.5382 20.9458 27.4382 20.7799 27.3708C20.614 27.3034 20.4365 27.27 20.2577 27.2726V21.8181H24.3054V25.2272C24.3054 27.8469 26.4356 29.9999 29.0277 29.9999C29.195 29.997 29.3603 29.9627 29.5152 29.8987C31.8705 29.6381 33.75 27.6726 33.75 25.2272V13.6363C33.7499 13.2747 33.6077 12.9279 33.3547 12.6722L27.9578 7.21765C27.895 7.15413 27.8261 7.09704 27.7522 7.0472L23.7046 4.31994C23.4804 4.1643 23.2149 4.08075 22.943 4.08024C22.6516 4.07972 22.3678 4.17456 22.1342 4.35058C21.9005 4.52659 21.7295 4.77432 21.6468 5.05671C21.564 5.33911 21.574 5.64099 21.6751 5.91721C21.7762 6.19343 21.9631 6.42915 22.2077 6.5891L25.6546 8.91154V12.2727C25.6546 13.7795 26.8622 14.9999 28.3531 14.9999H31.0515V25.2272C31.0515 26.3737 30.1621 27.2726 29.0277 27.2726C27.8932 27.2726 27.0038 26.3737 27.0038 25.2272V21.8181C27.0038 20.3275 25.7802 19.0908 24.3054 19.0908H20.2577V2.72726C20.2577 1.22045 19.0501 0 17.5592 0H4.06691ZM4.06691 2.72726H17.5592V10.909H4.06691V2.72726Z" fill="white"/>
</svg>
