<?xml version="1.0" encoding="utf-8"?>
<!-- Generator: Adobe Illustrator 23.0.6, SVG Export Plug-In . SVG Version: 6.00 Build 0)  -->
<svg version="1.1" id="Layer_1" xmlns="http://www.w3.org/2000/svg" xmlns:xlink="http://www.w3.org/1999/xlink" x="0px" y="0px"
	 viewBox="0 0 30 30" style="enable-background:new 0 0 30 30;" xml:space="preserve">
<path d="M15,0C6.72,0,0,6.72,0,15s6.72,15,15,15s15-6.72,15-15S23.29,0,15,0z M7.4,15.5l0.06-0.1l3.9-6.11
	c0.06-0.09,0.19-0.08,0.23,0.02c0.65,1.46,1.22,3.28,0.95,4.41c-0.11,0.47-0.42,1.1-0.77,1.68c-0.05,0.08-0.09,0.17-0.15,0.25
	c-0.02,0.04-0.07,0.06-0.11,0.06h-4C7.41,15.71,7.34,15.59,7.4,15.5z M24.79,17.6c0,0.06-0.03,0.1-0.08,0.13
	c-0.3,0.13-1.34,0.61-1.77,1.2c-1.1,1.53-1.93,3.71-3.81,3.71h-7.82c-2.77,0-5.02-2.25-5.02-5.03v-0.09c0-0.07,0.06-0.13,0.14-0.13
	h4.36c0.09,0,0.15,0.08,0.14,0.16c-0.03,0.28,0.02,0.57,0.16,0.84c0.26,0.52,0.8,0.85,1.37,0.85h2.16v-1.68h-2.13
	c-0.11,0-0.17-0.13-0.11-0.22c0.02-0.04,0.05-0.07,0.08-0.11c0.2-0.29,0.49-0.73,0.78-1.24c0.19-0.34,0.38-0.71,0.54-1.07
	c0.03-0.07,0.05-0.14,0.08-0.2c0.04-0.12,0.08-0.23,0.11-0.34c0.03-0.09,0.06-0.19,0.08-0.28c0.07-0.31,0.1-0.64,0.1-0.98
	c0-0.14-0.01-0.28-0.02-0.41c-0.01-0.15-0.02-0.29-0.04-0.44c-0.01-0.13-0.04-0.26-0.06-0.39c-0.03-0.19-0.07-0.39-0.12-0.59
	l-0.02-0.07c-0.04-0.14-0.07-0.26-0.11-0.4c-0.12-0.42-0.26-0.83-0.41-1.22c-0.05-0.15-0.11-0.3-0.18-0.44
	c-0.09-0.22-0.18-0.42-0.27-0.61c-0.05-0.09-0.08-0.16-0.12-0.25s-0.08-0.18-0.13-0.27c-0.03-0.07-0.07-0.13-0.09-0.19l-0.26-0.49
	c-0.04-0.07,0.02-0.15,0.1-0.13l1.65,0.45h0.01c0,0,0,0,0.01,0l0.22,0.06l0.24,0.07l0.09,0.02V6.86C14.62,6.38,15,6,15.47,6
	c0.23,0,0.45,0.1,0.6,0.25c0.15,0.16,0.25,0.37,0.25,0.61v1.45l0.18,0.05c0.01,0.01,0.03,0.01,0.04,0.02
	c0.04,0.03,0.11,0.08,0.18,0.14c0.06,0.05,0.13,0.11,0.21,0.17c0.16,0.13,0.35,0.29,0.56,0.48c0.05,0.05,0.11,0.1,0.16,0.15
	c0.27,0.25,0.57,0.54,0.86,0.86c0.08,0.09,0.16,0.18,0.24,0.28c0.08,0.1,0.16,0.19,0.24,0.29c0.1,0.13,0.2,0.26,0.29,0.4
	c0.04,0.07,0.09,0.14,0.13,0.2c0.12,0.18,0.22,0.36,0.32,0.54c0.04,0.08,0.08,0.18,0.12,0.27c0.11,0.25,0.2,0.49,0.25,0.75
	c0.02,0.05,0.03,0.11,0.04,0.16v0.01c0.02,0.07,0.02,0.15,0.03,0.23c0.02,0.26,0.01,0.51-0.04,0.77c-0.02,0.11-0.05,0.21-0.09,0.32
	c-0.04,0.1-0.08,0.21-0.12,0.32c-0.09,0.21-0.2,0.43-0.33,0.63c-0.04,0.08-0.09,0.15-0.14,0.23s-0.11,0.15-0.16,0.22
	c-0.07,0.09-0.14,0.19-0.22,0.28c-0.07,0.09-0.13,0.18-0.21,0.26c-0.1,0.12-0.2,0.24-0.31,0.35c-0.06,0.07-0.13,0.15-0.2,0.21
	c-0.07,0.08-0.14,0.14-0.19,0.2c-0.1,0.1-0.19,0.18-0.26,0.25l-0.17,0.15c-0.02,0.02-0.06,0.04-0.09,0.04h-1.31v1.68h1.65
	c0.37,0,0.72-0.13,1.01-0.37c0.1-0.08,0.52-0.45,1.02-1c0.02-0.02,0.04-0.03,0.06-0.04l4.56-1.32c0.09-0.02,0.17,0.04,0.17,0.13
	v0.98H24.79z"/>
</svg>
