<?xml version="1.0" encoding="utf-8"?>
<!-- Generator: Adobe Illustrator 23.0.6, SVG Export Plug-In . SVG Version: 6.00 Build 0)  -->
<svg version="1.1" id="Layer_1" xmlns="http://www.w3.org/2000/svg" xmlns:xlink="http://www.w3.org/1999/xlink" x="0px" y="0px"
	 viewBox="0 0 30 30" style="enable-background:new 0 0 30 30;" xml:space="preserve">
<path d="M15.03,3c-0.08,0-0.15,0.01-0.22,0.03C14.49,3.1,14.22,3.3,14.08,3.6l-3.3,6.72l-7.48,1.11c-0.37,0.07-0.67,0.33-0.78,0.69
	c-0.11,0.36-0.02,0.75,0.25,1.02l5.35,5.26l-1.24,7.41c-0.06,0.38,0.09,0.76,0.4,0.99c0.31,0.23,0.72,0.26,1.06,0.09L15,23.37
	l6.65,3.52c0.34,0.17,0.75,0.14,1.06-0.09c0.31-0.23,0.46-0.61,0.4-0.99l-1.24-7.41l5.35-5.26c0.27-0.27,0.36-0.66,0.25-1.02
	c-0.11-0.36-0.42-0.63-0.78-0.69l-7.48-1.11l-3.3-6.72C15.76,3.25,15.42,3.02,15.03,3z M15,6.36l2.66,5.35
	c0.15,0.29,0.44,0.5,0.76,0.54l5.93,0.89l-4.28,4.18c-0.25,0.23-0.36,0.56-0.32,0.89l1.01,5.93l-5.29-2.79
	c-0.3-0.16-0.65-0.16-0.95,0l-5.29,2.79l1.01-5.93c0.05-0.33-0.07-0.66-0.32-0.89l-4.28-4.18l5.92-0.89
	c0.32-0.04,0.61-0.25,0.76-0.54L15,6.36z"/>
</svg>
