<svg width="30" height="30" viewBox="0 0 30 30" fill="none" xmlns="http://www.w3.org/2000/svg">
<path d="M8.43744 18.5152C8.43744 18.9503 8.61029 19.3676 8.91797 19.6753C9.22564 19.983 9.64294 20.1558 10.0781 20.1558H19.9218C20.3569 20.1558 20.7742 19.983 21.0819 19.6753C21.3896 19.3676 21.5624 18.9503 21.5624 18.5152V14.0035H8.43744V18.5152ZM10.371 16.2886C10.371 16.0555 10.4636 15.832 10.6285 15.6672C10.7933 15.5023 11.0168 15.4097 11.2499 15.4097H12.6562C12.8893 15.4097 13.1128 15.5023 13.2777 15.6672C13.4425 15.832 13.5351 16.0555 13.5351 16.2886V16.8746C13.5351 17.1077 13.4425 17.3312 13.2777 17.4961C13.1128 17.6609 12.8893 17.7535 12.6562 17.7535H11.2499C11.0168 17.7535 10.7933 17.6609 10.6285 17.4961C10.4636 17.3312 10.371 17.1077 10.371 16.8746V16.2886Z" fill="#4FD1C5"/>
<path d="M19.9218 9.84296H10.0781C9.64294 9.84296 9.22564 10.0158 8.91797 10.3235C8.61029 10.6312 8.43744 11.0485 8.43744 11.4836V12.2453H21.5624V11.4836C21.5624 11.0485 21.3896 10.6312 21.0819 10.3235C20.7742 10.0158 20.3569 9.84296 19.9218 9.84296V9.84296Z" fill="#4FD1C5"/>
</svg>
