<svg width="32" height="36" viewBox="0 0 32 36" fill="none" xmlns="http://www.w3.org/2000/svg">
<path fill-rule="evenodd" clip-rule="evenodd" d="M16 0L31.5 8.94893V26.8468L16 35.7957L0.5 26.8468V8.94893L16 0Z" fill="url(#paint0_radial_1638_2663)"/>
<path d="M9.89645 14.0558C13.2613 10.7656 18.7167 10.7656 22.0815 14.0558L22.4865 14.4518C22.6547 14.6163 22.6547 14.883 22.4865 15.0475L21.1012 16.4021C21.0171 16.4844 20.8807 16.4844 20.7966 16.4021L20.2393 15.8572C17.8919 13.5619 14.0861 13.5619 11.7387 15.8572L11.1419 16.4408C11.0578 16.523 10.9214 16.523 10.8373 16.4408L9.45197 15.0862C9.28373 14.9217 9.28373 14.6549 9.45197 14.4904L9.89645 14.0558ZM24.9548 16.8682L26.1874 18.0703C26.3556 18.2343 26.3556 18.5003 26.1874 18.6643L20.6295 24.0846C20.4613 24.2486 20.1886 24.2487 20.0204 24.0846C20.0204 24.0846 20.0204 24.0846 20.0204 24.0846L16.0757 20.2377C16.0337 20.1967 15.9655 20.1967 15.9235 20.2377C15.9235 20.2377 15.9235 20.2377 15.9235 20.2377L11.9789 24.0846C11.8107 24.2486 11.538 24.2487 11.3698 24.0846C11.3698 24.0846 11.3698 24.0846 11.3698 24.0846L5.8117 18.6643C5.6435 18.5002 5.6435 18.2343 5.8117 18.0702L7.04431 16.8682C7.21251 16.7041 7.48521 16.7041 7.65341 16.8682L11.5981 20.7152C11.6402 20.7562 11.7084 20.7562 11.7504 20.7152C11.7504 20.7152 11.7504 20.7152 11.7504 20.7152L15.695 16.8682C15.8631 16.7041 16.1359 16.7041 16.3041 16.8682C16.3041 16.8682 16.3041 16.8682 16.3041 16.8682L20.2488 20.7152C20.2908 20.7562 20.359 20.7562 20.4011 20.7152L24.3457 16.8682C24.5139 16.7042 24.7866 16.7042 24.9548 16.8682Z" fill="white"/>
<defs>
<radialGradient id="paint0_radial_1638_2663" cx="0" cy="0" r="1" gradientUnits="userSpaceOnUse" gradientTransform="translate(0.5 17.8979) scale(31 35.7957)">
<stop stop-color="#5D9DF6"/>
<stop offset="1" stop-color="#006FFF"/>
</radialGradient>
</defs>
</svg>
