<svg width="226" height="79" viewBox="0 0 226 79" fill="none" xmlns="http://www.w3.org/2000/svg">
<path d="M3.53906 1.68752V77.4657C3.53906 78.0108 2.95727 78.3743 2.08458 78.3743C1.21189 78.3743 0.630094 78.0108 0.630094 77.4657V1.77838C0.630094 1.23322 1.21189 0.869766 2.08458 0.869766C2.95727 0.869766 3.53906 1.23322 3.53906 1.68752Z" fill="white"/>
<path d="M46.8478 5.38281V28.9113H43.4866L26.6805 10.8273V28.9113H23.3193V5.38281H26.6805L43.4866 23.1983V5.38281H46.8478Z" fill="white"/>
<path d="M53.5692 8.74402V15.4664H70.3753V18.8277H53.5692V28.9113H50.208V5.38281H73.7365V8.74402H53.5692Z" fill="white"/>
<path d="M97.9416 8.74402H87.8579V28.9113H84.4967V8.74402H74.4131V5.38281H97.9416V8.74402Z" fill="white"/>
<path d="M40.1244 52.8051H30.0408C29.1029 52.8051 28.3083 53.1272 27.6568 53.7715C27.0053 54.423 26.6796 55.2213 26.6796 56.1663V62.8887H43.4856V56.1663C43.4856 55.2213 43.1634 54.423 42.5191 53.7715C41.8676 53.1272 41.0694 52.8051 40.1244 52.8051ZM46.8468 56.1663V72.9723H43.4856V66.2499H26.6796V72.9723H23.3184V56.1663C23.3184 55.2642 23.4937 54.4123 23.8445 53.6105C24.1882 52.8015 24.6643 52.0891 25.2728 51.4735C25.8742 50.8578 26.5865 50.3638 27.4098 49.9915C28.2259 49.6264 29.1029 49.4438 30.0408 49.4438H40.1244C41.0265 49.4438 41.8784 49.6157 42.6802 49.9593C43.4892 50.3101 44.1944 50.7862 44.7957 51.3876C45.4043 51.9961 45.8947 52.7084 46.2669 53.5245C46.632 54.3407 46.8253 55.2213 46.8468 56.1663Z" fill="white"/>
<path d="M73.7365 49.4438V72.9723H70.3753L53.5692 54.8884V72.9723H50.208V49.4438H53.5692L70.3753 67.2593V49.4438H73.7365Z" fill="white"/>
<path d="M93.9037 52.8051H83.8201C82.8822 52.8051 82.0876 53.1272 81.4361 53.7715C80.7846 54.423 80.4589 55.2213 80.4589 56.1663V62.8887H97.2649V56.1663C97.2649 55.2213 96.9428 54.423 96.2984 53.7715C95.6469 53.1272 94.8487 52.8051 93.9037 52.8051ZM100.626 56.1663V72.9723H97.2649V66.2499H80.4589V72.9723H77.0977V56.1663C77.0977 55.2642 77.2731 54.4123 77.6238 53.6105C77.9675 52.8015 78.4436 52.0891 79.0521 51.4735C79.6535 50.8578 80.3658 50.3638 81.1891 49.9915C82.0052 49.6264 82.8822 49.4438 83.8201 49.4438H93.9037C94.8058 49.4438 95.6577 49.6157 96.4595 49.9593C97.2685 50.3101 97.9737 50.7862 98.575 51.3876C99.1836 51.9961 99.674 52.7084 100.046 53.5245C100.411 54.3407 100.605 55.2213 100.626 56.1663Z" fill="white"/>
<path d="M107.349 49.4438V69.6111H127.516V72.9723H103.987V49.4438H107.349Z" fill="white"/>
<path d="M144.321 54.4803L134.238 65.5734V72.9723H130.877V65.5734L120.793 54.4803V49.4438H124.154V53.1057L132.563 62.3518L140.96 53.1057V49.4438H144.321V54.4803Z" fill="white"/>
<path d="M168.527 52.8051H158.443V72.9723H155.082V52.8051H144.998V49.4438H168.527V52.8051Z" fill="white"/>
<path d="M170.202 72.9723V49.4438H173.563V72.9723H170.202Z" fill="white"/>
<path d="M183.314 49.4438H193.398C194.293 49.4438 195.145 49.6157 195.954 49.9593C196.763 50.3101 197.468 50.7862 198.069 51.3876C198.678 51.9961 199.165 52.7084 199.53 53.5245C199.902 54.3407 200.099 55.2213 200.12 56.1663H196.759C196.759 55.2213 196.433 54.423 195.782 53.7715C195.138 53.1272 194.343 52.8051 193.398 52.8051H183.314C182.376 52.8051 181.582 53.1272 180.93 53.7715C180.279 54.423 179.953 55.2213 179.953 56.1663V66.2499C179.953 67.1877 180.279 67.9824 180.93 68.6339C181.582 69.2854 182.376 69.6111 183.314 69.6111H193.398C194.343 69.6111 195.138 69.2854 195.782 68.6339C196.433 67.9824 196.759 67.1877 196.759 66.2499H200.12C200.12 67.1448 199.948 67.9967 199.605 68.8057C199.254 69.6075 198.778 70.3163 198.177 70.932C197.568 71.5477 196.856 72.0416 196.04 72.4139C195.223 72.7862 194.343 72.9723 193.398 72.9723H183.314C182.419 72.9723 181.564 72.7969 180.748 72.4461C179.924 72.1025 179.205 71.6264 178.589 71.0179C177.974 70.4165 177.487 69.7042 177.129 68.8809C176.771 68.0647 176.592 67.1877 176.592 66.2499V56.1663C176.592 55.2642 176.767 54.4123 177.118 53.6105C177.462 52.8015 177.938 52.0963 178.546 51.4949C179.148 50.8864 179.856 50.396 180.672 50.0237C181.496 49.6586 182.376 49.4653 183.314 49.4438Z" fill="white"/>
<path d="M226 66.2499C226 67.1448 225.828 67.9967 225.485 68.8057C225.134 69.6075 224.658 70.3163 224.056 70.932C223.448 71.5477 222.736 72.0416 221.919 72.4139C221.103 72.7862 220.223 72.9723 219.278 72.9723H209.194C208.278 72.9723 207.415 72.7969 206.606 72.4461C205.804 72.1025 205.099 71.6264 204.491 71.0179C203.889 70.4165 203.406 69.7042 203.041 68.8809C202.683 68.0647 202.493 67.1877 202.472 66.2499H205.833C205.833 67.1877 206.159 67.9824 206.81 68.6339C207.462 69.2854 208.256 69.6111 209.194 69.6111H219.278C220.223 69.6111 221.021 69.2854 221.672 68.6339C222.317 67.9824 222.639 67.1877 222.639 66.2499C222.639 65.3049 222.317 64.5067 221.672 63.8552C221.021 63.2108 220.223 62.8887 219.278 62.8887H209.194C208.299 62.8887 207.444 62.7133 206.628 62.3625C205.811 62.0189 205.096 61.5428 204.48 60.9342C203.857 60.3329 203.367 59.6205 203.009 58.7972C202.651 57.9811 202.472 57.1041 202.472 56.1663C202.472 55.2642 202.647 54.4123 202.998 53.6105C203.342 52.8015 203.818 52.0891 204.426 51.4735C205.027 50.8578 205.74 50.3638 206.563 49.9915C207.379 49.6264 208.256 49.4438 209.194 49.4438H219.278C220.173 49.4438 221.025 49.6157 221.834 49.9593C222.643 50.3101 223.348 50.7862 223.949 51.3876C224.558 51.9961 225.048 52.7084 225.42 53.5245C225.785 54.3407 225.979 55.2213 226 56.1663H222.639C222.639 55.2213 222.317 54.423 221.672 53.7715C221.021 53.1272 220.223 52.8051 219.278 52.8051H209.194C208.256 52.8051 207.462 53.1272 206.81 53.7715C206.159 54.423 205.833 55.2213 205.833 56.1663C205.833 57.1041 206.159 57.8988 206.81 58.5503C207.462 59.2017 208.256 59.5275 209.194 59.5275H219.278C220.151 59.5275 220.999 59.6993 221.823 60.0429C222.639 60.3937 223.355 60.8698 223.971 61.4712C224.586 62.0797 225.08 62.792 225.452 63.6082C225.818 64.4243 226 65.3049 226 66.2499Z" fill="white"/>
</svg>
